<svg version="1.0" xmlns="http://www.w3.org/2000/svg" width="700.000000pt" height="700.000000pt" viewBox="0 0 700.000000 700.000000" preserveAspectRatio="xMidYMid meet">
    <g transform="translate(0.000000,700.000000) scale(0.100000,-0.100000)" fill="#080e2a" stroke="none">
        <path d="M3280 6994 c-19 -2 -84 -9 -145 -14 -578 -56 -1180 -283 -1660 -625
        -237 -169 -531 -446 -709 -670 -416 -521 -673 -1147 -748 -1820 -17 -155 -17
        -575 0 -730 52 -469 198 -931 418 -1327 290 -523 731 -983 1239 -1294 439
        -269 920 -432 1460 -496 145 -17 576 -17 730 0 822 91 1556 447 2131 1034 203
        206 348 390 487 618 274 449 433 916 499 1465 16 136 16 592 0 730 -86 725
        -352 1347 -803 1885 -122 145 -351 370 -494 484 -510 407 -1117 661 -1775 742
        -117 15 -553 27 -630 18z m-554 -3168 l709 -314 0 -128 0 -128 -725 -321 -725
        -322 -3 160 c-1 93 1 163 7 166 5 4 259 105 564 226 306 121 554 222 552 223
        -2 2 -255 102 -562 222 l-558 217 -3 162 c-2 154 -2 162 16 157 10 -4 338
        -148 728 -320z m2434 -1681 l0 -125 -785 0 -785 0 0 125 0 125 785 0 785 0 0
        -125z"/>
    </g>
</svg>